<svg width="195" height="28" viewBox="0 0 195 28" fill="none" xmlns="http://www.w3.org/2000/svg">
<g filter="url(#filter0_d_2006_6)">
<path d="M186.458 19.4877H178.422C178.039 19.4877 177.698 19.4045 177.399 19.2382C177.116 19.0718 176.866 18.8638 176.65 18.6143C176.45 18.3647 176.267 18.0902 176.101 17.7907C175.951 17.4746 175.827 17.1751 175.727 16.8923L174.279 12.5249L172.008 19.4877H165.021L167.341 12.3253H181.666L181.741 12.6248L181.841 12.3253H188.779L186.458 19.4877ZM167.391 12.2005L167.791 10.9527H181.292L181.641 12.2005H167.391ZM167.866 10.7031L168.24 9.55516H180.918L181.217 10.7031H167.866ZM168.365 9.18082L168.714 8.15762H180.543L180.818 9.18082H168.365ZM179.894 6.76007C179.994 6.92644 180.086 7.0845 180.169 7.23424C180.252 7.38397 180.327 7.53371 180.394 7.68345H168.864L169.163 6.76007H179.894ZM181.891 12.2005L182.29 10.9527H189.228L188.829 12.2005H181.891ZM182.365 10.7031L182.739 9.55516H189.677L189.303 10.7031H182.365ZM182.864 9.18082L183.214 8.15762H190.151L189.802 9.18082H182.864ZM169.363 6.16112L169.563 5.4873H178.148C178.364 5.4873 178.58 5.55385 178.796 5.68695C179.013 5.82005 179.221 5.97811 179.42 6.16112H169.363ZM183.363 7.68345L183.663 6.76007H190.601L190.301 7.68345H183.363ZM184.062 5.4873H191L190.8 6.16112H183.862L184.062 5.4873Z" fill="white"/>
<path d="M163.528 19.4877H156.54L158.861 12.3253H165.849L163.528 19.4877ZM158.911 12.2005L159.31 10.9527H166.298L165.899 12.2005H158.911ZM159.385 10.7031L159.759 9.55516H166.747L166.373 10.7031H159.385ZM159.884 9.18082L160.234 8.15762H167.221L166.872 9.18082H159.884ZM160.383 7.68345L160.683 6.76007H167.67L167.371 7.68345H160.383ZM161.082 5.4873H168.07L167.87 6.16112H160.882L161.082 5.4873Z" fill="white"/>
<path d="M133.16 19.5127L140.996 12.3253H148.957L141.346 19.5127H133.16ZM155.047 19.4877H148.084L150.405 12.3253H157.368L155.047 19.4877ZM142.768 10.7031L144.016 9.55516H158.266L157.892 10.7031H142.768ZM144.415 9.18082L145.563 8.15762H158.74L158.391 9.18082H144.415ZM146.062 7.68345L146.961 6.85989C146.961 6.85989 146.969 6.85158 146.986 6.83494C147.002 6.8183 147.027 6.79334 147.061 6.76007H159.189L158.89 7.68345H146.062ZM150.455 10.9527C150.405 10.9693 150.363 10.9943 150.33 11.0276C150.297 11.0609 150.247 11.1108 150.18 11.1773L149.082 12.2005H141.146L142.494 10.9527H150.455ZM150.455 12.2005L150.804 11.1274C150.804 11.1108 150.771 11.0858 150.704 11.0525C150.638 11.0193 150.588 10.986 150.555 10.9527H157.817L157.417 12.2005H150.455ZM147.834 6.16112C148.084 5.97811 148.342 5.82005 148.608 5.68695C148.874 5.55385 149.107 5.4873 149.307 5.4873H159.589L159.389 6.16112H147.834Z" fill="white"/>
<path d="M131.99 19.4877H124.978L126.675 14.2968H123.306L121.609 19.4877H114.621L116.942 12.3253H134.311L131.99 19.4877ZM116.992 12.2005L117.391 10.9527H134.761L134.361 12.2005H116.992ZM127.823 10.7031L128.197 9.55516H135.21L134.836 10.7031H127.823ZM117.466 10.7031L117.84 9.55516H124.828L124.454 10.7031H117.466ZM128.322 9.18082L128.671 8.15762H135.684L135.335 9.18082H128.322ZM117.965 9.18082L118.315 8.15762H125.302L124.953 9.18082H117.965ZM128.821 7.68345L129.121 6.76007H136.133L135.834 7.68345H128.821ZM118.464 7.68345L118.764 6.76007H125.751L125.452 7.68345H118.464ZM129.52 5.4873H136.533L136.333 6.16112H129.32L129.52 5.4873ZM118.963 6.16112L119.163 5.4873H126.151L125.951 6.16112H118.963Z" fill="white"/>
<path d="M105.435 15.2452C105.401 15.4115 105.418 15.553 105.485 15.6694C105.551 15.7692 105.651 15.8192 105.784 15.8192H114.169L112.971 19.4877H100.319C99.9359 19.4877 99.5782 19.4045 99.2455 19.2382C98.9294 19.0551 98.6549 18.8222 98.4219 18.5394C98.2057 18.2565 98.0559 17.9321 97.9727 17.5661C97.9062 17.2001 97.9395 16.8174 98.0726 16.4181L99.3952 12.3253H106.383L105.435 15.2452ZM116.49 9.15586H107.955C107.872 9.15586 107.814 9.16418 107.781 9.18082H100.418L100.468 9.05604C100.535 8.80648 100.676 8.507 100.893 8.15762H116.815L116.49 9.15586ZM101.217 7.68345C101.35 7.51707 101.483 7.35902 101.616 7.20928C101.766 7.05954 101.924 6.90981 102.09 6.76007H117.264L116.964 7.68345H101.217ZM105.035 5.4873H117.663L117.464 6.16112H102.914C103.263 5.96147 103.613 5.80342 103.962 5.68695C104.328 5.55385 104.686 5.4873 105.035 5.4873ZM99.4451 12.2005L99.8444 10.9527H106.832L106.433 12.2005H99.4451ZM107.356 9.55516C107.323 9.62171 107.29 9.68826 107.256 9.75481C107.223 9.80472 107.198 9.85464 107.182 9.90455L106.907 10.7031H99.9193L100.294 9.55516H107.356Z" fill="white"/>
<path d="M87.0667 17.067L86.6424 15.3949L85.3198 19.4877H78.332L80.653 12.3253H92.7567C92.6735 12.7745 92.7068 13.2071 92.8565 13.623C93.0063 14.039 93.2225 14.4133 93.5054 14.746C93.8049 15.0622 94.1376 15.32 94.5036 15.5197C94.8863 15.7027 95.2773 15.7942 95.6766 15.7942H96.7746L95.5767 19.4877H89.7869C89.4542 19.4877 89.1464 19.4045 88.8635 19.2382C88.5807 19.0718 88.3228 18.8721 88.0899 18.6392C87.8736 18.3896 87.674 18.1234 87.4909 17.8406C87.3246 17.5578 87.1832 17.2999 87.0667 17.067ZM93.5553 10.9527C93.1893 11.3187 92.9563 11.6598 92.8565 11.9759L92.7817 12.2005H80.7029L81.1022 10.9527H93.5553ZM88.2396 10.5285C88.3727 10.3621 88.4892 10.204 88.589 10.0543C88.7055 9.88791 88.8219 9.72154 88.9384 9.55516H95.427C95.1442 9.7049 94.8697 9.87959 94.6035 10.0792C94.3539 10.2623 94.0877 10.4702 93.8049 10.7031H81.177L81.5514 9.55516H88.5391L88.2396 10.5285ZM89.2379 9.18082C89.3876 8.99781 89.529 8.82311 89.6621 8.65674C89.7952 8.49036 89.9533 8.32399 90.1363 8.15762H99.2703L98.9209 9.18082H96.55H96.4752H89.2379ZM90.7103 7.68345V7.63354C90.7768 7.56699 90.9016 7.45884 91.0846 7.30911C91.2676 7.14273 91.5006 6.95972 91.7834 6.76007H99.7195L99.42 7.68345H90.7103ZM81.6762 9.18082L82.0255 8.15762H89.0133L88.6639 9.18082H81.6762ZM82.1753 7.68345L82.4748 6.76007H89.4625L89.163 7.68345H82.1753ZM82.6744 6.16112L82.8741 5.4873H89.8618L89.6621 6.16112H82.6744ZM92.7567 6.16112C93.0728 5.99475 93.3972 5.85333 93.73 5.73687C94.0794 5.60377 94.4454 5.52058 94.8281 5.4873H100.119L99.9191 6.16112H92.7567Z" fill="white"/>
<path d="M64.0286 19.4877C63.6459 19.4877 63.2882 19.4045 62.9555 19.2382C62.6393 19.0551 62.3648 18.8222 62.1319 18.5394C61.9156 18.2565 61.7659 17.9321 61.6827 17.5661C61.6161 17.2001 61.6494 16.8174 61.7825 16.4181L63.1052 12.3253H70.0929L69.1446 15.2452C69.1113 15.4115 69.128 15.553 69.1945 15.6694C69.261 15.7692 69.3609 15.8192 69.494 15.8192H77.8792L76.6813 19.4877H64.0286ZM64.1783 9.05604C64.2449 8.80648 64.3863 8.507 64.6026 8.15762H80.5246L80.2002 9.15586H71.6652C71.582 9.15586 71.5237 9.16418 71.4905 9.18082H64.1284L64.1783 9.05604ZM64.927 7.68345C65.0601 7.51707 65.1932 7.35902 65.3263 7.20928C65.476 7.05954 65.6341 6.90981 65.8005 6.76007H80.9738L80.6743 7.68345H64.927ZM81.3731 5.4873L81.1735 6.16112H66.624C66.9734 5.96147 67.3228 5.80342 67.6722 5.68695C68.0382 5.55385 68.3959 5.4873 68.7453 5.4873H81.3731ZM63.1551 12.2005L63.5544 10.9527H70.5421L70.1428 12.2005H63.1551ZM70.8915 9.90455L70.617 10.7031H63.6293L64.0036 9.55516H71.0662C71.0329 9.62171 70.9997 9.68826 70.9664 9.75481C70.9331 9.80472 70.9082 9.85464 70.8915 9.90455Z" fill="white"/>
<path d="M60.2828 16.4181C60.1497 16.8174 59.9251 17.2001 59.609 17.5661C59.2928 17.9321 58.9351 18.2565 58.5358 18.5394C58.1365 18.8222 57.7123 19.0551 57.2631 19.2382C56.8305 19.4045 56.4229 19.4877 56.0402 19.4877H44.4106C44.028 19.4877 43.6703 19.4045 43.3375 19.2382C43.0214 19.0551 42.7469 18.8222 42.514 18.5394C42.2977 18.2565 42.148 17.9321 42.0648 17.5661C41.9982 17.2001 42.0315 16.8174 42.1646 16.4181L43.4873 12.3253H50.45L49.5017 15.2452C49.4851 15.3284 49.4851 15.4448 49.5017 15.5946C49.535 15.7443 49.6598 15.8192 49.876 15.8192H52.9706C53.0704 15.8192 53.1952 15.7526 53.345 15.6195C53.4947 15.4698 53.6112 15.345 53.6943 15.2452L54.6427 12.3253H61.6055L60.2828 16.4181ZM62.8283 8.15762C62.8283 8.45709 62.7784 8.75656 62.6786 9.05604L62.6287 9.18082H55.2416C55.225 9.18082 55.2084 9.18082 55.1917 9.18082C55.1917 9.16418 55.1751 9.15586 55.1418 9.15586H51.9973C51.9807 9.15586 51.9641 9.16418 51.9474 9.18082C51.9308 9.18082 51.9141 9.18082 51.8975 9.18082H44.5105L44.5604 9.05604C44.6269 8.80648 44.7684 8.507 44.9846 8.15762H62.8283ZM62.5288 6.76007C62.612 6.90981 62.6703 7.05954 62.7035 7.20928C62.7368 7.35902 62.7701 7.51707 62.8034 7.68345H45.3091C45.4422 7.51707 45.5753 7.35902 45.7084 7.20928C45.8581 7.05954 46.0162 6.90981 46.1825 6.76007H62.5288ZM49.1274 5.4873H60.4076C60.7569 5.4873 61.0647 5.55385 61.3309 5.68695C61.6138 5.80342 61.8717 5.96147 62.1046 6.16112H47.0061C47.3555 5.96147 47.7049 5.80342 48.0543 5.68695C48.4203 5.55385 48.778 5.4873 49.1274 5.4873ZM43.5372 12.2005L43.9365 10.9527H50.8993L50.5 12.2005H43.5372ZM54.6926 12.2005L55.0919 10.9527H62.0547L61.6554 12.2005H54.6926ZM51.2237 9.95446L50.9741 10.7031H44.0114L44.3857 9.55516H51.4233C51.3734 9.63835 51.3318 9.71322 51.2986 9.77977C51.2819 9.82968 51.257 9.88791 51.2237 9.95446ZM55.1668 10.7031L55.4163 9.95446C55.4829 9.80472 55.4912 9.67162 55.4413 9.55516H62.5039L62.1295 10.7031H55.1668Z" fill="white"/>
<path d="M26.4891 19.4877C26.0565 19.4877 25.6905 19.3962 25.391 19.2132C25.0916 19.0302 24.867 18.7806 24.7172 18.4645C24.5841 18.1318 24.5176 17.7574 24.5176 17.3415C24.5176 16.9089 24.6008 16.4431 24.7671 15.9439L25.9401 12.3253H32.9278L32.1043 14.8958C31.9878 15.2285 31.9795 15.4615 32.0793 15.5946C32.1958 15.711 32.4204 15.7859 32.7531 15.8192H40.8639L39.666 19.4877H26.4891ZM25.99 12.2005L26.3893 10.9527H33.377L32.9777 12.2005H25.99ZM26.4642 10.7031L26.8385 9.55516H33.8262L33.4519 10.7031H26.4642ZM26.9633 9.18082L27.3127 8.15762H34.3004L33.951 9.18082H26.9633ZM27.4624 7.68345L27.7619 6.76007H34.7496L34.4501 7.68345H27.4624ZM28.1612 5.4873H35.1489L34.9493 6.16112H27.9615L28.1612 5.4873Z" fill="white"/>
<path d="M18.3498 19.4877H4L6.32092 12.3253H23.4658L23.4159 12.3752C23.6987 12.7246 23.8235 13.1572 23.7902 13.6729C23.7736 14.1887 23.6738 14.7128 23.4908 15.2452C23.341 15.711 23.1164 16.1935 22.817 16.6926C22.5341 17.1918 22.1764 17.6493 21.7438 18.0652C21.3279 18.4812 20.8288 18.8222 20.2465 19.0884C19.6808 19.3546 19.0486 19.4877 18.3498 19.4877ZM24.7136 10.9527C24.4308 11.4518 24.0731 11.8678 23.6405 12.2005H6.37084L6.77014 10.9527H24.7136ZM17.9755 9.18082C17.9422 9.18082 17.9089 9.18082 17.8756 9.18082C17.8424 9.16418 17.8008 9.15586 17.7509 9.15586H14.3319L14.3069 9.18082H7.34413L7.69351 8.15762H25.4873C25.4873 8.34063 25.4706 8.51532 25.4374 8.6817C25.4207 8.84807 25.4041 9.01444 25.3874 9.18082H17.9755ZM25.1129 6.76007C25.1795 6.89317 25.2377 7.04291 25.2876 7.20928C25.3542 7.35902 25.4041 7.51707 25.4374 7.68345H7.84325L8.14272 6.76007H25.1129ZM8.34237 6.16112L8.54202 5.4873H22.8669C23.2662 5.4873 23.6072 5.55385 23.8901 5.68695C24.1895 5.80342 24.4557 5.96147 24.6887 6.16112H8.34237ZM6.845 10.7031L7.21935 9.55516H14.1821L13.8078 10.7031H6.845ZM17.7009 10.7031C18.0004 10.6366 18.2084 10.4037 18.3248 10.0044C18.3748 9.87127 18.3914 9.72154 18.3748 9.55516H25.3126L25.2627 9.72985C25.1961 9.91287 25.1296 10.0876 25.063 10.2539C24.9965 10.4203 24.9216 10.57 24.8384 10.7031H17.7009ZM16.1037 14.222H12.6847L12.1607 15.8192H15.6046C15.9207 15.8192 16.1703 15.736 16.3533 15.5696C16.5363 15.4032 16.6694 15.2036 16.7526 14.9707C16.8358 14.7045 16.8358 14.5131 16.7526 14.3967C16.6694 14.2802 16.4531 14.222 16.1037 14.222Z" fill="white"/>
</g>
<defs>
<filter id="filter0_d_2006_6" x="-3" y="0.487305" width="201" height="32.0254" filterUnits="userSpaceOnUse" color-interpolation-filters="sRGB">
<feFlood flood-opacity="0" result="BackgroundImageFix"/>
<feColorMatrix in="SourceAlpha" type="matrix" values="0 0 0 0 0 0 0 0 0 0 0 0 0 0 0 0 0 0 127 0" result="hardAlpha"/>
<feOffset dy="4"/>
<feGaussianBlur stdDeviation="2"/>
<feComposite in2="hardAlpha" operator="out"/>
<feColorMatrix type="matrix" values="0 0 0 0 0 0 0 0 0 0 0 0 0 0 0 0 0 0 0.25 0"/>
<feBlend mode="normal" in2="BackgroundImageFix" result="effect1_dropShadow_2006_6"/>
<feBlend mode="normal" in="SourceGraphic" in2="effect1_dropShadow_2006_6" result="shape"/>
</filter>
</defs>
</svg>
